<svg xmlns="http://www.w3.org/2000/svg" xmlns:xlink="http://www.w3.org/1999/xlink" width="100" height="100" viewBox="0 0 100 100" fill="none"><g opacity="1"  transform="translate(0 0)  rotate(0)"><rect fill="#FFFFFF" opacity="0" transform="translate(0 0)  rotate(0)" x="0" y="0" width="100" height="100" /><mask id="bg-mask-0" fill="white"><use transform="translate(0 0)  rotate(0)" xlink:href="#path_0"></use></mask><g mask="url(#bg-mask-0)" ><path id="矩形 1" fill-rule="evenodd" style="fill:#FCAF3A" opacity="1" d="M30 84L50 84L50 15L30 15L30 84Z"></path><path id="圆形 1" fill-rule="evenodd" style="fill:#CCCCCC" opacity="1" d="M50 9C27.91 9 10 26.91 10 49C10 71.09 27.91 89 50 89C72.09 89 90 71.09 90 49C90 26.91 72.09 9 50 9Z"></path><path id="路径 1" fill-rule="evenodd" style="fill:#FAA952" opacity="1" d="M30 84C38 88.5 43.25 88.15 45.5 88C45.5 69.85 45.5 26.5 45.5 22.5C45.5 18.5 45.5 12.2 45.5 9.5C34 11 31.2 13.45 30 14.5L30 84Z"></path><path  id="路径 1" style="fill:#000000; opacity:0;"></path><path id="圆形 2" fill-rule="evenodd" style="fill:#FFF48F" opacity="1" d="M50.0015 64.9983L22.0015 65C22.0017 68.28 22.7219 71.53 24.1321 74.5699C25.5422 77.5998 27.6024 80.3597 30.2025 82.6795C32.8027 84.9993 35.8928 86.8392 39.2829 88.099C42.6829 89.3488 46.323 89.9985 50.003 89.9983C53.683 89.9981 57.3229 89.3479 60.7229 88.0977C64.1128 86.8375 67.2027 84.9973 69.8025 82.6771C72.4024 80.357 74.4622 77.5969 75.872 74.5668C77.2819 71.5267 78.0017 68.2767 78.0015 64.9967L50.0015 64.9983Z"></path><path id="圆形 3" fill-rule="evenodd" style="fill:#A9FF9C" opacity="1" d="M50.5 39C44.15 39 39 45.49 39 53.5C39 61.51 44.15 68 50.5 68C56.85 68 62 61.51 62 53.5C62 45.49 56.85 39 50.5 39Z"></path><path id="圆形 6" fill-rule="evenodd" style="fill:#CCCCCC" opacity="1" d="M45 60C43.9 60 43 60.9 43 62C43 63.1 43.9 64 45 64C46.1 64 47 63.1 47 62C47 60.9 46.1 60 45 60Z"></path><path id="圆形 4" fill-rule="evenodd" style="fill:#CCCCCC" opacity="1" d="M45.5 45C44.67 45 44 45.67 44 46.5C44 47.33 44.67 48 45.5 48C46.33 48 47 47.33 47 46.5C47 45.67 46.33 45 45.5 45Z"></path><path id="圆形 5" fill-rule="evenodd" style="fill:#CCCCCC" opacity="1" d="M55 49C52.79 49 51 50.79 51 53C51 55.21 52.79 57 55 57C57.21 57 59 55.21 59 53C59 50.79 57.21 49 55 49Z"></path><path id="圆形 7" fill-rule="evenodd" style="fill:#FFFFFF" opacity="1" d="M56 51C55.45 51 55 51.45 55 52C55 52.55 55.45 53 56 53C56.55 53 57 52.55 57 52C57 51.45 56.55 51 56 51Z"></path><path id="路径 2" fill-rule="evenodd" style="fill:#FAA952" opacity="1" d="M44.5 23L55 9.5C53 9.5 52.65 9.5 52.5 9.5L44.5 17L44.5 23Z"></path><path  id="路径 2" style="fill:#000000; opacity:1;"></path></g></g><defs><rect id="path_0" x="0" y="0" width="100" height="100" /></defs></svg>