<svg viewBox="0 0 1024 1024" version="1.1" xmlns="http://www.w3.org/2000/svg" p-id="3473"><path d="M958.9 895.8L732 668.9l-63 63 227 226.9 64 1.3zM792.3 379l-102.5-12.7-311-284.7c-25.2-24-65.7-23.4-90.1 1l-206 205.9c-24.6 24.6-25 65.1-1.1 90.2l284.8 311.1 12.7 102.5c0 74.7 55.1 104.7 108 51.7L844 487.1c53-53 23.1-108.1-51.7-108.1zM439.7 610.1c-4.2 4.2-9.7 6.4-15.6 6.4s-11.4-2.3-15.7-6.5l-254-254.3c-8.4-8.4-8.6-22.5-0.2-31l43.7-45c4.2-4.4 9.7-6.7 15.9-6.7 5.7 0 11.2 2.3 15.3 6.3 4.3 4 6.5 9.6 6.8 15.4 0.1 5.9-2.1 11.5-6.3 15.8l-28.5 29.3 238.6 239c8.6 8.6 8.5 22.6 0 31.3z"></path></svg>