<svg id="图层_1" data-name="图层 1" xmlns="http://www.w3.org/2000/svg" viewBox="0 0 146 194.02"><defs><style>.cls-1{fill:none;stroke:#000;stroke-miterlimit:10;stroke-width:10px;}</style></defs><rect x="0.5" y="67.52" width="145" height="126" rx="9.5"/><path d="M136,68a9,9,0,0,1,9,9V184a9,9,0,0,1-9,9H10a9,9,0,0,1-9-9V77a9,9,0,0,1,9-9H136m0-1H10A10,10,0,0,0,0,77V184a10,10,0,0,0,10,10H136a10,10,0,0,0,10-10V77a10,10,0,0,0-10-10Z"/><rect x="10.5" y="77.52" width="125" height="106"/><path d="M135,78V183H11V78H135m1-1H10V184H136V77Z"/><path class="cls-1" d="M26,77V45.11C30.33,21.35,51.43,4.3,75,5c22.5.7,41.9,17.43,46,40.09V77"/></svg>